<svg width="74" height="74" viewBox="0 0 74 74" fill="none" xmlns="http://www.w3.org/2000/svg">
<path fill-rule="evenodd" clip-rule="evenodd" d="M65.5678 51.4096C67.8113 47.0432 69.0775 42.0922 69.0775 36.8455C69.0775 19.2212 54.7902 4.93383 37.1658 4.93383C19.5415 4.93383 5.25414 19.2212 5.25414 36.8455C5.25414 54.4698 19.5415 68.7572 37.1658 68.7572C42.4125 68.7572 47.3635 67.491 51.7299 65.2475C51.4872 64.3252 51.3579 63.3569 51.3579 62.3584C51.3579 56.1061 56.4264 51.0376 62.6788 51.0376C63.6772 51.0376 64.6455 51.1669 65.5678 51.4096ZM69.94 53.6727C72.5349 48.6288 73.9996 42.9082 73.9996 36.8455C73.9996 16.5028 57.5086 0.0117188 37.1658 0.0117188C16.8231 0.0117188 0.332031 16.5028 0.332031 36.8455C0.332031 57.1882 16.8231 73.6793 37.1658 73.6793C43.2285 73.6793 48.9491 72.2146 53.993 69.6197C56.0697 72.1011 59.1899 73.6793 62.6788 73.6793C68.9311 73.6793 73.9996 68.6108 73.9996 62.3584C73.9996 58.8696 72.4214 55.7493 69.94 53.6727ZM43.9982 51.0552C47.732 51.06 51.3147 49.5762 53.9583 46.9303C54.5045 46.3757 55.0054 45.7779 55.4562 45.1427L58.577 47.4631C56.9208 49.7873 54.7359 51.6814 52.2036 52.988C49.6714 54.2945 46.865 54.9758 44.0177 54.9753C34.7571 54.9753 27.1409 47.9186 26.1808 38.8604H19.3662V52.3111L15.7546 54.9753V18.8798H30.9357L27.8526 23.1906H19.3662V34.9973H26.1808C27.1409 25.9373 34.7571 18.8798 44.0177 18.8798C46.8648 18.8803 49.6708 19.5621 52.2028 20.8687C54.7347 22.1754 56.9196 24.0691 58.5761 26.3928L55.4553 28.709C55.0047 28.0752 54.5041 27.4789 53.9583 26.9257C52.6543 25.6127 51.1049 24.5709 49.3988 23.86C47.6928 23.1492 45.8637 22.7833 44.0164 22.7833C42.1691 22.7833 40.34 23.1492 38.634 23.86C36.928 24.5709 35.3785 25.6127 34.0745 26.9257C31.431 29.5716 29.9431 33.163 29.9383 36.9097C29.9335 40.6565 31.4121 44.2517 34.0488 46.9045C36.6856 49.5573 40.2645 51.0503 43.9982 51.0552ZM47.0146 31.1997C46.0911 30.7094 45.0625 30.4518 44.0177 30.4493C42.9092 30.4497 41.8196 30.7372 40.8542 31.2839C39.8888 31.8306 39.0803 32.618 38.5069 33.57C37.9336 34.522 37.6147 35.6063 37.5811 36.7182C37.5476 37.83 37.8005 38.9318 38.3155 39.9168C38.8304 40.9019 39.5899 41.7369 40.5206 42.3412C41.4513 42.9455 42.5216 43.2986 43.628 43.3663C44.7344 43.4341 45.8396 43.2141 46.8365 42.7278C47.8335 42.2415 48.6886 41.5053 49.319 40.5904L52.4432 42.9108C51.4938 44.2686 50.2324 45.377 48.7659 46.1421C47.2993 46.9073 45.6706 47.3068 44.0177 47.3067C38.3181 47.305 33.7003 42.6616 33.7003 36.9275C33.7003 31.1935 38.3181 26.5467 44.0177 26.5467C45.6706 26.5471 47.2992 26.9469 48.7657 27.7122C50.2322 28.4775 51.4936 29.5858 52.4432 30.9434L49.319 33.2639C48.7291 32.3985 47.9382 31.6901 47.0146 31.1997ZM62.6788 70.562C67.2094 70.562 70.8823 66.8891 70.8823 62.3584C70.8823 57.8278 67.2094 54.1549 62.6788 54.1549C58.1481 54.1549 54.4752 57.8278 54.4752 62.3584C54.4752 66.8891 58.1481 70.562 62.6788 70.562Z" fill="url(#paint0_linear_9_89)"/>
<path fill-rule="evenodd" clip-rule="evenodd" d="M57.5928 63.4966L62.2006 66.952L67.7651 59.223L65.5772 57.764L61.6196 63.2613L59.2324 61.4711L57.5928 63.4966ZM67.1725 59.329L65.6823 58.3353L65.6823 58.3353L67.1725 59.329L67.1725 59.329ZM59.3049 62.047L59.3049 62.047L61.7111 63.8514L61.7111 63.8514L59.3049 62.047Z" fill="url(#paint1_linear_9_89)"/>
<defs>
<linearGradient id="paint0_linear_9_89" x1="21.6708" y1="-4.15981" x2="42.3" y2="51.7243" gradientUnits="userSpaceOnUse">
<stop stop-color="#459CD6"/>
<stop offset="0.2127" stop-color="#4898D3"/>
<stop offset="0.4331" stop-color="#528BCA"/>
<stop offset="0.6571" stop-color="#6377BC"/>
<stop offset="0.882" stop-color="#7B5AA8"/>
<stop offset="1" stop-color="#89489C"/>
</linearGradient>
<linearGradient id="paint1_linear_9_89" x1="62.679" y1="57.764" x2="62.679" y2="66.952" gradientUnits="userSpaceOnUse">
<stop offset="0.232292" stop-color="#2FF38A"/>
<stop offset="1" stop-color="#07C961"/>
</linearGradient>
</defs>
</svg>
