<svg width="75" height="55" viewBox="0 0 75 55" fill="none" xmlns="http://www.w3.org/2000/svg">
<path fill-rule="evenodd" clip-rule="evenodd" d="M42.141 39.8268C44.8475 36.1897 46.4509 31.6699 46.4509 26.7731C46.4509 14.748 36.7822 5 24.8553 5C12.9284 5 3.25971 14.748 3.25971 26.7731C3.25971 31.7449 4.91249 36.3273 7.6943 39.9925L0 47.7502L7.21267 47.7281L7.19082 55L15.6477 46.4736C18.4407 47.8028 21.5619 48.5461 24.8553 48.5461C28.2259 48.5461 31.4161 47.7678 34.2587 46.3793L42.8091 55L42.7873 47.7281L50 47.7502L42.141 39.8268ZM43.1912 26.7731C43.1912 36.9828 34.982 45.2596 24.8553 45.2596C14.7287 45.2596 6.51943 36.9828 6.51943 26.7731C6.51943 16.5633 14.7287 8.2865 24.8553 8.2865C34.982 8.2865 43.1912 16.5633 43.1912 26.7731ZM40.7464 26.7731C40.7464 35.6216 33.6317 42.7948 24.8553 42.7948C16.0789 42.7948 8.96421 35.6216 8.96421 26.7731C8.96421 17.9246 16.0789 10.7514 24.8553 10.7514C33.6317 10.7514 40.7464 17.9246 40.7464 26.7731ZM25.059 18.9676L26.7514 24.2191H32.2282L27.7974 27.4647L29.4898 32.7162L25.059 29.4706L20.6283 32.7162L22.3207 27.4647L17.8899 24.2191H23.3666L25.059 18.9676Z" fill="#3F3631"/>
</svg>
